<svg xmlns="http://www.w3.org/2000/svg" viewBox="0 0 1328 1579"><path fill="#fff" d="M735.67 133.71c21.42-27.04 46.35-52.37 74.11-72.92 8.15-6.03 16.12-11.02 25.61-15.78C874.12 25.58 915.16 8.68 957.83.23a.46.46 0 0 1 .55.42q1.91 28.92 3.32 57.92.64 13.11.65 19.99.03 74.59-37.11 138.65c-15.98 27.56-39.2 49.37-63.28 70.24q-40.1 34.76-83.16 63.49-8.67 5.79-14.22 8.11c-11.5 4.82-25.85 7.11-37.08 8.41q-32.06 3.72-64.24 6.13-.48.03-.56-.44c-5.44-30.6-6.17-62.08 3.42-91.15 17.38-52.66 36.25-106.26 69.55-148.29Z"/><path fill="#fff" d="M0 820.44v-15.25q.67-29.41 3.66-50.51c17.97-126.56 67.48-255.75 179.01-329.25 32.15-21.19 70.6-36.03 107.83-45.19 55.06-13.56 113.36-18.11 169.75-11.45q36.89 4.36 71.24 18.5c48.28 19.88 93.44 43.23 147.57 40.61q35.79-1.73 69.29-15.03c23.64-9.38 45.14-19.47 59.46-25.54 29.32-12.43 56.92-17.92 88.66-19.8 111.29-6.61 234.75 21.89 317.72 101.29q24.41 23.36 47.22 49.24a.66.65 51.3 0 1-.1.96c-24.46 18.33-48.95 37.53-70.92 58.98-27.46 26.83-46.79 59.17-63.91 93.21q-26.99 53.68-31.48 114.12c-2.65 35.61-1.7 70.36 5.92 105.19 11.03 50.44 31.81 102.42 62.92 143.16 32.33 42.36 68.55 81.52 117.86 104.17q22.98 10.55 45.78 21.24a.51.5 24.5 0 1 .25.65c-26.75 63.42-56.15 131.13-87.99 190.22-29.12 54.04-62.47 102.11-106.53 144.64q-28.3 27.32-36.3 35.31c-27.3 27.23-60.7 38.89-98.16 44.33-7.88 1.15-16.56 2.72-23.7 3.43-40.29 4.02-80.19-4.1-117.31-19.64-21.48-8.99-48.41-21.67-73.64-30.45-36.52-12.71-74.35-16.34-112.31-7.91-35.59 7.9-67.43 23.68-100.55 38.13-37.28 16.28-75.91 23.52-115.98 18.92q-25.44-2.92-55.24-12.75-39.66-13.09-71.75-39.74c-65.15-54.09-121.61-121.24-165.46-195.04q-40.6-68.32-74.98-139.95-4.52-9.42-8.2-18.24c-31.7-75.98-54.23-156.62-68.28-237.67Q1.64 877.27 0 820.44Z"/></svg>